<?xml version="1.0" encoding="UTF-8" standalone="no"?>
<svg xmlns="http://www.w3.org/2000/svg" width="64" height="64" viewBox="0 0 64 64">
  <!-- Background -->
  <rect x="2" y="2" width="60" height="60" rx="8" ry="8" fill="#3f51b5" />
  
  <!-- Film reel -->
  <circle cx="32" cy="32" r="20" fill="#1a237e" />
  <circle cx="32" cy="32" r="16" fill="#283593" />
  
  <!-- Film holes -->
  <circle cx="32" cy="12" r="4" fill="#e8eaf6" />
  <circle cx="32" cy="52" r="4" fill="#e8eaf6" />
  <circle cx="12" cy="32" r="4" fill="#e8eaf6" />
  <circle cx="52" cy="32" r="4" fill="#e8eaf6" />
  <circle cx="20" cy="20" r="3" fill="#e8eaf6" />
  <circle cx="44" cy="20" r="3" fill="#e8eaf6" />
  <circle cx="20" cy="44" r="3" fill="#e8eaf6" />
  <circle cx="44" cy="44" r="3" fill="#e8eaf6" />
  
  <!-- Seat icon -->
  <rect x="26" y="26" width="12" height="12" rx="2" ry="2" fill="#f5f5f5" />
  <rect x="28" y="28" width="8" height="6" rx="1" ry="1" fill="#3f51b5" />

  <!-- Popcorn box -->
  <path d="M32,42 L29,36 L35,36 Z" fill="#ffeb3b" />
  <rect x="29" y="33" width="6" height="3" fill="#f44336" stroke="#f44336" stroke-width="0.5" />
</svg>