<?xml version="1.0" encoding="UTF-8" standalone="no"?>
<svg xmlns="http://www.w3.org/2000/svg" width="150" height="150" viewBox="0 0 150 150">
  <!-- Background circle -->
  <circle cx="75" cy="75" r="70" fill="#1d3557" />
  
  <!-- Cinema ticket -->
  <path d="M30,55 L120,55 L120,95 L30,95 L30,55 Z" fill="#457b9d" />
  <path d="M30,55 L50,55 L50,95 L30,95 L30,55 Z" fill="#a8dadc" />
  <path d="M100,55 L120,55 L120,95 L100,95 L100,55 Z" fill="#a8dadc" />
  
  <!-- Perforated line -->
  <path d="M50,55 L50,95" stroke="#ffffff" stroke-width="1.5" stroke-dasharray="5,3"/>
  <path d="M100,55 L100,95" stroke="#ffffff" stroke-width="1.5" stroke-dasharray="5,3"/>
  
  <!-- Text on ticket -->
  <text x="75" y="80" font-family="Arial" font-size="20" text-anchor="middle" fill="#ffffff">CINE</text>
  
  <!-- Small stars -->
  <polygon points="105,62 107,67 112,67 108,70 110,75 105,72 100,75 102,70 98,67 103,67" fill="#f1faee" />
  <polygon points="45,62 47,67 52,67 48,70 50,75 45,72 40,75 42,70 38,67 43,67" fill="#f1faee" />
  
  <!-- Outer ring -->
  <circle cx="75" cy="75" r="70" fill="none" stroke="#e63946" stroke-width="5" />
</svg>