<?xml version="1.0" encoding="UTF-8" standalone="no"?>
<svg width="24" height="24" viewBox="0 0 24 24" fill="none" xmlns="http://www.w3.org/2000/svg">
  <path d="M12 17.5C15.0376 17.5 17.5 15.0376 17.5 12C17.5 8.96243 15.0376 6.5 12 6.5C8.96243 6.5 6.5 8.96243 6.5 12C6.5 15.0376 8.96243 17.5 12 17.5Z" stroke="#4A6FDC" stroke-width="1.5" stroke-linecap="round" stroke-linejoin="round"/>
  <path d="M12 20.5C16.6944 20.5 20.5 16.6944 20.5 12C20.5 7.30558 16.6944 3.5 12 3.5C7.30558 3.5 3.5 7.30558 3.5 12C3.5 16.6944 7.30558 20.5 12 20.5Z" stroke="#4A6FDC" stroke-width="1.5" stroke-linecap="round" stroke-linejoin="round"/>
  <path d="M15 9L9 15" stroke="#4A6FDC" stroke-width="1.5" stroke-linecap="round" stroke-linejoin="round"/>
  <path d="M9 9L15 15" stroke="#4A6FDC" stroke-width="1.5" stroke-linecap="round" stroke-linejoin="round"/>
</svg>