<?xml version="1.0" encoding="UTF-8" standalone="no"?>
<svg xmlns="http://www.w3.org/2000/svg" width="32" height="32" viewBox="0 0 32 32">
  <!-- Error circle -->
  <circle cx="16" cy="16" r="14" fill="#f44336" />
  
  <!-- X mark -->
  <path d="M21.7,10.3 L16,16 L21.7,21.7 L21.7,21.7 C22.1,22.1 22.1,22.7 21.7,23.1 C21.5,23.3 21.3,23.4 21,23.4 C20.7,23.4 20.5,23.3 20.3,23.1 L14.6,17.4 L8.9,23.1 C8.7,23.3 8.5,23.4 8.2,23.4 C7.9,23.4 7.7,23.3 7.5,23.1 C7.1,22.7 7.1,22.1 7.5,21.7 L13.2,16 L7.5,10.3 C7.1,9.9 7.1,9.3 7.5,8.9 C7.9,8.5 8.5,8.5 8.9,8.9 L14.6,14.6 L20.3,8.9 C20.7,8.5 21.3,8.5 21.7,8.9 C22.1,9.3 22.1,9.9 21.7,10.3 Z" fill="white"/>
</svg>